<?xml version="1.0" standalone="no"?><!DOCTYPE svg PUBLIC "-//W3C//DTD SVG 1.1//EN" "http://www.w3.org/Graphics/SVG/1.1/DTD/svg11.dtd"><svg t="1609401730882" class="icon" viewBox="0 0 1024 1024" version="1.1" xmlns="http://www.w3.org/2000/svg" p-id="1902" width="20" height="20" xmlns:xlink="http://www.w3.org/1999/xlink"><defs><style type="text/css"></style></defs><path d="M732.8 880C603.2 880 496 772.8 496 643.2c0-129.6 107.2-236.8 236.8-236.8 129.6 0 236.8 107.2 236.8 236.8C971.2 772.8 864 880 732.8 880z" fill="#96E8BA" p-id="1903"></path><path d="M574.4 777.6c-22.4 0-43.2-1.6-65.6-6.4-81.6-17.6-152-65.6-196.8-136-92.8-144-52.8-337.6 92.8-432 144-92.8 337.6-52.8 432 92.8 92.8 144 52.8 337.6-92.8 432-51.2 33.6-110.4 49.6-169.6 49.6z m0-564.8c-46.4 0-94.4 12.8-137.6 40-116.8 75.2-150.4 233.6-75.2 350.4 75.2 116.8 233.6 150.4 350.4 75.2 116.8-75.2 150.4-233.6 75.2-350.4-49.6-75.2-131.2-115.2-212.8-115.2z" fill="#103E26" p-id="1904"></path><path d="M952 915.2c-8 0-14.4-3.2-19.2-8l-192-208c-9.6-11.2-9.6-28.8 1.6-38.4 11.2-9.6 28.8-9.6 38.4 1.6l192 208c9.6 11.2 9.6 28.8-1.6 38.4-6.4 3.2-12.8 6.4-19.2 6.4zM312 211.2h-256c-14.4 0-27.2-12.8-27.2-27.2s12.8-27.2 27.2-27.2h256c14.4 0 27.2 12.8 27.2 27.2s-12.8 27.2-27.2 27.2zM200 451.2h-144c-14.4 0-27.2-12.8-27.2-27.2s12.8-27.2 27.2-27.2h144c14.4 0 27.2 12.8 27.2 27.2s-12.8 27.2-27.2 27.2zM264 723.2h-208c-14.4 0-27.2-12.8-27.2-27.2s12.8-27.2 27.2-27.2h208c14.4 0 27.2 12.8 27.2 27.2s-12.8 27.2-27.2 27.2zM454.4 614.4c-9.6 0-20.8-4.8-25.6-14.4-14.4-27.2-46.4-97.6-24-184 9.6-33.6 24-64 46.4-91.2 9.6-12.8 28.8-14.4 41.6-4.8 12.8 9.6 14.4 28.8 4.8 41.6-17.6 20.8-28.8 43.2-35.2 68.8-17.6 65.6 6.4 120 17.6 139.2 8 14.4 3.2 32-11.2 40-4.8 3.2-9.6 4.8-14.4 4.8z" fill="#103E26" p-id="1905"></path><path d="M528 288m-32 0a32 32 0 1 0 64 0 32 32 0 1 0-64 0Z" fill="#103E26" p-id="1906"></path></svg>